<?xml version="1.0" encoding="utf-8"?>
<!-- Generator: Adobe Illustrator 23.0.1, SVG Export Plug-In . SVG Version: 6.00 Build 0)  -->
<svg version="1.1" id="Layer_1" xmlns="http://www.w3.org/2000/svg" xmlns:xlink="http://www.w3.org/1999/xlink" x="0px" y="0px"
	 viewBox="0 0 70 70" style="enable-background:new 0 0 70 70;" xml:space="preserve">
<style type="text/css">
	.st0{fill:#F27380;}
	.st1{fill:#FFFFFF;}
</style>
<g>
	<circle class="st0" cx="35" cy="35" r="35"/>
	<g>
		<path class="st1" d="M14.32,16.39c0-1.94,0.99-2.91,2.96-2.91h3.5c1.94,0,2.91,0.97,2.91,2.91v5.83c0,0.39-0.01,0.73-0.02,1.01
			c-0.02,0.28-0.02,0.55-0.02,0.78c-0.03,0.27-0.05,0.49-0.05,0.67h0.09c0.39-0.51,0.85-0.97,1.39-1.39
			c0.48-0.33,1.09-0.64,1.84-0.94c0.75-0.3,1.64-0.45,2.69-0.45c1.52,0,2.92,0.3,4.19,0.9c1.27,0.6,2.36,1.43,3.27,2.49
			c0.91,1.06,1.63,2.32,2.15,3.79c0.52,1.46,0.79,3.08,0.79,4.84c0,1.88-0.28,3.59-0.85,5.11c-0.57,1.52-1.34,2.82-2.31,3.88
			c-0.97,1.06-2.11,1.88-3.41,2.47c-1.3,0.58-2.7,0.87-4.19,0.87c-0.54,0-1.11-0.04-1.73-0.13c-0.61-0.09-1.2-0.25-1.77-0.49
			c-0.57-0.24-1.1-0.57-1.59-0.99c-0.49-0.42-0.89-0.94-1.19-1.57h-0.09c-0.06,0.78-0.34,1.41-0.83,1.91
			c-0.49,0.49-1.19,0.74-2.08,0.74h-2.69c-1.97,0-2.96-0.97-2.96-2.91V16.39z M23.42,33.97c0,1.32,0.3,2.41,0.9,3.3
			c0.6,0.88,1.46,1.32,2.6,1.32c1.05,0,1.93-0.37,2.65-1.1c0.72-0.73,1.08-1.82,1.08-3.25c0-1.34-0.34-2.44-1.01-3.27
			c-0.67-0.84-1.53-1.26-2.58-1.26c-0.96,0-1.8,0.37-2.53,1.1C23.78,31.54,23.42,32.59,23.42,33.97z"/>
		<path class="st1" d="M42.25,40.07c0-1.94,0.97-2.91,2.91-2.91h2.74c1.97,0,2.96,0.97,2.96,2.91v2.74c0,1.94-0.99,2.91-2.96,2.91
			h-2.74c-1.94,0-2.91-0.97-2.91-2.91V40.07z"/>
	</g>
</g>
</svg>
