<?xml version="1.0" encoding="utf-8"?>
<!-- Generator: Adobe Illustrator 23.0.1, SVG Export Plug-In . SVG Version: 6.00 Build 0)  -->
<svg version="1.1" xmlns="http://www.w3.org/2000/svg" xmlns:xlink="http://www.w3.org/1999/xlink" x="0px" y="0px"
	 viewBox="0 0 212.09 243.4" style="enable-background:new 0 0 212.09 243.4;" xml:space="preserve">
<style type="text/css">
	.st0{fill:#1E1713;}
	.st1{fill:#9B775D;}
	.st2{fill:#2D231B;}
	.st3{fill:#B18866;}
	.st4{fill:#9E1F63;}
	.st5{fill:#E0D6CE;}
	.st6{fill:#9B7A61;}
	.st7{opacity:0.14;fill:#972353;}
	.st8{fill:#F9F9FA;}
</style>
<g id="Layer_2">
	<path class="st0" d="M78.5,19.89c0,0,32.44-33.06,65.79-7.4s23.14,136.71,36.57,149.54c13.42,12.83,29.51-7.26,29.51-7.26
		s-2.29,87.17-61.25,47.17s-60.54-94.39-60.54-94.39L78.5,19.89z"/>
	<path class="st1" d="M62.96,217.96l11.31-11.51V177.8c0,0,25.73-64.9,52.38-3.43l-8.94,62.69l-43.25,6.86L62.96,217.96z"/>
	<path class="st2" d="M20.74,150.64c0,0-34.57-54.17-11.21-99.75C22.02,24.85,46.51,20,60.7,22.04c0,0,25.86-11.11,38.28-3.83
		c0,0,16.12-1.02,30.29,7.91s25.91,49.4,27.32,54.77c1.4,5.36-4.65,48.47-4.65,48.47L20.74,150.64z"/>
	<path class="st1" d="M18.12,131.36c0,0-8.34-6.98-12.09,2.55s-2.81,19.32,0,22.3c2.81,2.98,12.17,10.47,14.13,10.72
		c1.96,0.26,7.32-10.21,7.32-10.21L18.12,131.36z"/>
	<path class="st1" d="M144.51,102.13c0,0,1.45-7.23,6.3-7.15c4.85,0.09,12.77,5.28,13.79,7.15c1.02,1.87,7.4,11.23,6.13,16.17
		c-1.28,4.94-5.96,10.73-9.53,12.17c-3.57,1.44-9.19,5.02-9.19,5.02l-9.7-29.62L144.51,102.13z"/>
	<path class="st2" d="M10.3,110.74c0,0-8.87,99.47,35.23,91.57c0,0-18.09-8.57-19.32-28.23c-1.23-19.66-14.13-69.14-14.13-69.14
		L10.3,110.74z"/>
	<path class="st2" d="M147.8,90.21c0,0,33.13,94.21-11.56,97.43c0,0,15.42-12.76,11.76-32.12c-3.66-19.35-3.36-70.49-3.36-70.49
		L147.8,90.21z"/>
	<path class="st3" d="M17.62,117.59c0,0-19-79.48,50.22-84.28s77.29,65.07,77.29,65.07s21.58,56.55-10.73,71.39l-34.68,18.13
		c0,0-13.76,3.71-38.86-3.06S15.88,167.69,17.62,117.59z"/>
	<path class="st4" d="M22.89,240.67c0,0,1.27-30.89,18.47-32.68c17.19-1.79,19.23-7.49,19.23-7.49s6.55-13.65,13.79-8.4
		c0,0,4.94,34.78,16.99,33.51c3.32,1.7,35.26-18.27,31.18-34.71c0,0,4.51-1.29,7.32,8.07c0,0,5.87-1.53,8.17,1.87
		c2.3,3.4,19.49-3.74,27.4,9.7c7.91,13.45,11.23,36.26,11.23,36.26l-69.62,40.51L22.89,240.67z"/>
</g>
<g id="Layer_3">
	<path class="st5" d="M64.81,160.44c0,0,33.53-1.19,43.06-8c9.53-6.81,4.72,7.8,2.55,9.53c-2.16,1.73-15.66,14.64-37.62,7.49
		C62.09,167.67,64.81,160.44,64.81,160.44z"/>
	
		<ellipse transform="matrix(0.9879 -0.1553 0.1553 0.9879 -21.579 14.9814)" class="st6" cx="85.08" cy="145.58" rx="9.11" ry="5.53"/>
	
		<ellipse transform="matrix(0.9621 -0.2726 0.2726 0.9621 -34.5778 42.3102)" class="st7" cx="134.96" cy="145.58" rx="17.7" ry="9.87"/>
	<ellipse class="st7" cx="43.91" cy="162.55" rx="17.7" ry="9.87"/>
</g>
<g id="Layer_4">
	<path class="st2" d="M59.72,102.26c0,0,2.49,8.14-0.45,9.01S33.94,110,33.94,110s-9.48,3.87-11.92,6.56c0,0,4.12-9.08,7.87-10.85
		C33.65,103.93,59.72,102.26,59.72,102.26z"/>
	<path class="st2" d="M92.96,96.58c0,0,0.3,8.5,3.36,8.37c3.07-0.13,23.53-9.45,23.53-9.45s10.23,0.57,13.41,2.32
		c0,0-6.85-7.24-10.98-7.7C118.16,89.66,92.96,96.58,92.96,96.58z"/>
	<g>
		<g>
			<path class="st5" d="M67.92,139.65c0,0,0.01-13.97-18.04-12.95s-18.22,10-18.22,10s-1.25,15.03,15.89,11.55
				C56.08,147.74,66.97,144.95,67.92,139.65z"/>
		</g>
		<g>
			<circle class="st2" cx="52.94" cy="136.34" r="11.57"/>
		</g>
		
			<ellipse transform="matrix(0.9827 -0.1854 0.1854 0.9827 -24.1917 10.5432)" class="st8" cx="44.28" cy="134.62" rx="4.86" ry="1.86"/>
		<path class="st2" d="M32.94,144.8c0,0,9.5,7.26,32.23-0.77c0,0-9.16,6.44-18.08,5.74C39.16,150.2,32.94,144.8,32.94,144.8z"/>
		<path class="st2" d="M68.85,137.88c0,0-6.77-18.13-21.02-14.47c0,0-5.23-0.62-14.13,6.99s-12.85,7.48-12.85,7.48
			s-2.13,0.77-0.6,1.62C21.79,140.35,32,140.6,32,140.6s5.28-10.3,13.88-12.94C58,123.71,68.85,137.88,68.85,137.88z"/>
	</g>
	<g>
		<g>
			<path class="st5" d="M99.57,130.68c0,0-4.73-13.15,12.61-18.28c17.34-5.13,20.52,3.26,20.52,3.26s6.25,13.73-11.06,16.24
				C113.45,134.31,102.25,135.35,99.57,130.68z"/>
		</g>
		<g>
			<circle class="st2" cx="112.56" cy="122.51" r="11.57"/>
		</g>
		
			<ellipse transform="matrix(0.9876 -0.1572 0.1572 0.9876 -17.0467 20.3451)" class="st8" cx="120.13" cy="117.97" rx="4.86" ry="1.86"/>
		<path class="st2" d="M134.23,123.72c0,0-6.5,10.04-30.6,10.15c0,0,10.8,2.97,18.95-0.7C130.21,130.91,134.23,123.72,134.23,123.72
			z"/>
		<path class="st2" d="M98.1,129.33c0,0,0.25-19.35,14.9-20.71c0,0,4.72-2.35,15.66,1.81s14.62,2.7,14.62,2.7s2.26,0,1.11,1.32
			c-1.15,1.32-10.68,5.01-10.68,5.01s-8.44-7.91-17.43-7.49C103.53,112.33,98.1,129.33,98.1,129.33z"/>
	</g>
</g>
<g id="Layer_5">
	<g>
		<path class="st2" d="M35.61,54.81c0,0-20.46,44.47,15.27,63.75c0,0,4.99,4.56,4.9,1.23s-18.7-29.46-10.13-42.74
			S35.61,54.81,35.61,54.81z"/>
		<path class="st2" d="M80.64,22.26c0,0-27.9,0.13-45.68,21.11s21.99,67.29,21.99,67.29s3.7,1.96,3.5-0.44s-9.99-22.72-4.6-36.74
			S80.64,22.26,80.64,22.26z"/>
		<path class="st2" d="M96.85,37.3c0,0-27.9,0.13-45.68,21.11s21.99,67.29,21.99,67.29s3.7,1.96,3.5-0.44s-9.99-22.72-4.6-36.74
			S96.85,37.3,96.85,37.3z"/>
		<path class="st2" d="M12.03,69.26c0,0-20.46,44.47,15.27,63.75c0,0,4.99,4.56,4.9,1.23c-0.08-3.33-18.7-29.46-10.13-42.74
			S12.03,69.26,12.03,69.26z"/>
		<path class="st2" d="M57.09,36.94c0,0-27.9,0.13-45.68,21.11s21.99,67.29,21.99,67.29s3.7,1.96,3.5-0.44s-9.99-22.72-4.6-36.74
			S57.09,36.94,57.09,36.94z"/>
		<path class="st2" d="M111.01,46.91c0,0,31.33,38.03,1.74,65.43c0,0-3.64,5.64-4.43,2.39c-0.78-3.24,10.46-33.09-1.27-43.84
			S111.01,46.91,111.01,46.91z"/>
		<path class="st2" d="M58.99,26.43c0,0,27.03-6.7,49.68,9.26s-3.84,70.5-3.84,70.5s-3.07,2.8-3.5,0.44
			c-0.43-2.37,3.78-24.43-5.07-36.69S58.99,26.43,58.99,26.43z"/>
		<path class="st2" d="M47.21,44.94c0,0,27.03-6.7,49.68,9.26s-3.84,70.5-3.84,70.5s-3.07,2.8-3.5,0.44
			c-0.43-2.37,3.78-24.43-5.07-36.69S47.21,44.94,47.21,44.94z"/>
		<path class="st2" d="M137.58,55.13c0,0,31.33,38.03,1.74,65.43c0,0-3.64,5.64-4.43,2.39c-0.78-3.24,10.46-33.09-1.27-43.84
			S137.58,55.13,137.58,55.13z"/>
		<path class="st2" d="M85.6,34.87c0,0,27.03-6.7,49.68,9.26s-3.84,70.5-3.84,70.5s-3.07,2.8-3.5,0.44
			c-0.43-2.37,3.78-24.43-5.07-36.69S85.6,34.87,85.6,34.87z"/>
		<path class="st2" d="M65.54,55.24c-0.23,0.95,5.99,48.2,15.95,56.3c0,0,2.43,3.15,3.27-0.41c0.84-3.56-7.43-32.13-1.07-36.95
			C90.05,69.35,65.54,55.24,65.54,55.24z"/>
	</g>
	<polygon class="st2" points="45.53,37.11 92.96,34.05 70.55,52.68 	"/>
</g>
</svg>
